REM DIRINDEX 1\2,1\3
REM DIRNAME cjc102,folder01,folder02
TITLE ""
FILE "CD2Track19.mp3" MP3
  TRACK 01 AUDIO
    TITLE "0:"
    INDEX 01 00:00:00
  TRACK 02 AUDIO
    TITLE "2:cjc102_3168"
    INDEX 01 00:00:25
  TRACK 03 AUDIO
    TITLE "0:"
    INDEX 01 00:01:24
  TRACK 04 AUDIO
    TITLE "3:cjc102_3169"
    INDEX 01 00:01:56
  TRACK 05 AUDIO
    TITLE "0:"
    INDEX 01 00:03:21
  TRACK 06 AUDIO
    TITLE "3:cjc102_3170"
    INDEX 01 00:04:09
  TRACK 07 AUDIO
    TITLE "0:"
    INDEX 01 00:08:24
  TRACK 08 AUDIO
    TITLE "2:cjc102_3171"
    INDEX 01 00:08:34
  TRACK 09 AUDIO
    TITLE "0:"
    INDEX 01 00:09:40
  TRACK 10 AUDIO
    TITLE "3:cjc102_3172"
    INDEX 01 00:11:11
  TRACK 11 AUDIO
    TITLE "0:"
    INDEX 01 00:12:07
  TRACK 12 AUDIO
    TITLE "2:cjc102_3173"
    INDEX 01 00:12:30
  TRACK 13 AUDIO
    TITLE "0:"
    INDEX 01 00:13:39
  TRACK 14 AUDIO
    TITLE "3:cjc102_3174"
    INDEX 01 00:14:04
  TRACK 15 AUDIO
    TITLE "0:"
    INDEX 01 00:14:64
  TRACK 16 AUDIO
    TITLE "2:cjc102_3175"
    INDEX 01 00:15:32
  TRACK 17 AUDIO
    TITLE "0:"
    INDEX 01 00:16:36
  TRACK 18 AUDIO
    TITLE "3:cjc102_3176"
    INDEX 01 00:17:33
  TRACK 19 AUDIO
    TITLE "0:"
    INDEX 01 00:18:33
  TRACK 20 AUDIO
    TITLE "2:cjc102_3177"
    INDEX 01 00:18:35
  TRACK 21 AUDIO
    TITLE "0:"
    INDEX 01 00:19:34
  TRACK 22 AUDIO
    TITLE "3:cjc102_3178"
    INDEX 01 00:20:20
  TRACK 23 AUDIO
    TITLE "0:"
    INDEX 01 00:21:13
  TRACK 24 AUDIO
    TITLE "2:cjc102_3179"
    INDEX 01 00:21:17
  TRACK 25 AUDIO
    TITLE "0:"
    INDEX 01 00:22:19
  TRACK 26 AUDIO
    TITLE "3:cjc102_3180"
    INDEX 01 00:22:58
  TRACK 27 AUDIO
    TITLE "0:"
    INDEX 01 00:23:36
  TRACK 28 AUDIO
    TITLE "2:cjc102_3181"
    INDEX 01 00:23:55
  TRACK 29 AUDIO
    TITLE "0:"
    INDEX 01 00:24:55
  TRACK 30 AUDIO
    TITLE "3:cjc102_3182"
    INDEX 01 00:25:21
  TRACK 31 AUDIO
    TITLE "0:"
    INDEX 01 00:26:20
  TRACK 32 AUDIO
    TITLE "2:cjc102_3183"
    INDEX 01 00:26:32
  TRACK 33 AUDIO
    TITLE "0:"
    INDEX 01 00:27:36
  TRACK 34 AUDIO
    TITLE "3:cjc102_3184"
    INDEX 01 00:28:29
  TRACK 35 AUDIO
    TITLE "0:"
    INDEX 01 00:29:23
  TRACK 36 AUDIO
    TITLE "2:cjc102_3185"
    INDEX 01 00:29:29
  TRACK 37 AUDIO
    TITLE "0:"
    INDEX 01 00:30:36
  TRACK 38 AUDIO
    TITLE "3:cjc102_3186"
    INDEX 01 00:31:12
  TRACK 39 AUDIO
    TITLE "0:"
    INDEX 01 00:32:07
  TRACK 40 AUDIO
    TITLE "2:cjc102_3187"
    INDEX 01 00:32:19
  TRACK 41 AUDIO
    TITLE "0:"
    INDEX 01 00:33:36
  TRACK 42 AUDIO
    TITLE "3:cjc102_3188"
    INDEX 01 00:34:02
  TRACK 43 AUDIO
    TITLE "0:"
    INDEX 01 00:34:69
  TRACK 44 AUDIO
    TITLE "2:cjc102_3189"
    INDEX 01 00:35:27
  TRACK 45 AUDIO
    TITLE "0:"
    INDEX 01 00:36:42
  TRACK 46 AUDIO
    TITLE "3:cjc102_3190"
    INDEX 01 00:37:05
  TRACK 47 AUDIO
    TITLE "0:"
    INDEX 01 00:38:00
  TRACK 48 AUDIO
    TITLE "2:cjc102_3191"
    INDEX 01 00:38:24
  TRACK 49 AUDIO
    TITLE "0:"
    INDEX 01 00:39:37
  TRACK 50 AUDIO
    TITLE "3:cjc102_3192"
    INDEX 01 00:40:05
  TRACK 51 AUDIO
    TITLE "0:"
    INDEX 01 00:41:20
  TRACK 52 AUDIO
    TITLE "2:cjc102_3193"
    INDEX 01 00:41:36
  TRACK 53 AUDIO
    TITLE "0:"
    INDEX 01 00:42:41
  TRACK 54 AUDIO
    TITLE "3:cjc102_3194"
    INDEX 01 00:42:68
  TRACK 55 AUDIO
    TITLE "0:"
    INDEX 01 00:44:03
  TRACK 56 AUDIO
    TITLE "2:cjc102_3195"
    INDEX 01 00:44:58
  TRACK 57 AUDIO
    TITLE "0:"
    INDEX 01 00:45:71
  TRACK 58 AUDIO
    TITLE "3:cjc102_3196"
    INDEX 01 00:46:27
  TRACK 59 AUDIO
    TITLE "0:"
    INDEX 01 00:47:48
  TRACK 60 AUDIO
    TITLE "2:cjc102_3197"
    INDEX 01 00:47:50
  TRACK 61 AUDIO
    TITLE "0:"
    INDEX 01 00:48:69
  TRACK 62 AUDIO
    TITLE "3:cjc102_3198"
    INDEX 01 00:49:29
  TRACK 63 AUDIO
    TITLE "0:"
    INDEX 01 00:50:48
  TRACK 64 AUDIO
    TITLE "2:cjc102_3199"
    INDEX 01 00:50:68
  TRACK 65 AUDIO
    TITLE "0:"
    INDEX 01 00:52:04
  TRACK 66 AUDIO
    TITLE "3:cjc102_3200"
    INDEX 01 00:52:55
  TRACK 67 AUDIO
    TITLE "0:"
    INDEX 01 00:53:64
  TRACK 68 AUDIO
    TITLE "2:cjc102_3201"
    INDEX 01 00:54:11
  TRACK 69 AUDIO
    TITLE "0:"
    INDEX 01 00:55:22
  TRACK 70 AUDIO
    TITLE "3:cjc102_3202"
    INDEX 01 00:56:02
  TRACK 71 AUDIO
    TITLE "0:"
    INDEX 01 00:57:15
  TRACK 72 AUDIO
    TITLE "2:cjc102_3203"
    INDEX 01 00:57:23
  TRACK 73 AUDIO
    TITLE "0:"
    INDEX 01 00:58:34
  TRACK 74 AUDIO
    TITLE "3:cjc102_3204"
    INDEX 01 00:59:12
  TRACK 75 AUDIO
    TITLE "0:"
    INDEX 01 01:00:33
  TRACK 76 AUDIO
    TITLE "2:cjc102_3205"
    INDEX 01 01:00:43
  TRACK 77 AUDIO
    TITLE "0:"
    INDEX 01 01:01:54
  TRACK 78 AUDIO
    TITLE "2:cjc102_3206"
    INDEX 01 01:02:06
  TRACK 79 AUDIO
    TITLE "0:"
    INDEX 01 01:03:26
  TRACK 80 AUDIO
    TITLE "3:cjc102_3207"
    INDEX 01 01:03:73
  TRACK 81 AUDIO
    TITLE "0:"
    INDEX 01 01:05:22
  TRACK 82 AUDIO
    TITLE "2:cjc102_3208"
    INDEX 01 01:05:50
  TRACK 83 AUDIO
    TITLE "0:"
    INDEX 01 01:06:47
  TRACK 84 AUDIO
    TITLE "2:cjc102_3209"
    INDEX 01 01:07:14
  TRACK 85 AUDIO
    TITLE "0:"
    INDEX 01 01:08:15
  TRACK 86 AUDIO
    TITLE "3:cjc102_3210"
    INDEX 01 01:09:18
  TRACK 87 AUDIO
    TITLE "0:"
    INDEX 01 01:10:43
  TRACK 88 AUDIO
    TITLE "2:cjc102_3211"
    INDEX 01 01:10:53
  TRACK 89 AUDIO
    TITLE "0:"
    INDEX 01 01:11:54
  TRACK 90 AUDIO
    TITLE "2:cjc102_3212"
    INDEX 01 01:12:09
  TRACK 91 AUDIO
    TITLE "0:"
    INDEX 01 01:13:14
  TRACK 92 AUDIO
    TITLE "3:cjc102_3213"
    INDEX 01 01:13:73
  TRACK 93 AUDIO
    TITLE "0:"
    INDEX 01 01:15:03
  TRACK 94 AUDIO
    TITLE "2:cjc102_3214"
    INDEX 01 01:15:11
  TRACK 95 AUDIO
    TITLE "0:"
    INDEX 01 01:16:01
  TRACK 96 AUDIO
    TITLE "2:cjc102_3215"
    INDEX 01 01:16:36
  TRACK 97 AUDIO
    TITLE "0:"
    INDEX 01 01:17:45
  TRACK 98 AUDIO
    TITLE "3:cjc102_3216"
    INDEX 01 01:18:17
  TRACK 99 AUDIO
    TITLE "0:"
    INDEX 01 01:19:46
  TRACK 100 AUDIO
    TITLE "2:cjc102_3217"
    INDEX 01 01:19:58
  TRACK 101 AUDIO
    TITLE "0:"
    INDEX 01 01:22:56
  TRACK 102 AUDIO
    TITLE "3:cjc102_3218"
    INDEX 01 01:23:32
  TRACK 103 AUDIO
    TITLE "0:"
    INDEX 01 01:24:53
  TRACK 104 AUDIO
    TITLE "2:cjc102_3219"
    INDEX 01 01:25:33
  TRACK 105 AUDIO
    TITLE "0:"
    INDEX 01 01:29:03
  TRACK 106 AUDIO
    TITLE "3:cjc102_3220"
    INDEX 01 01:29:72
  TRACK 107 AUDIO
    TITLE "0:"
    INDEX 01 01:31:26
  TRACK 108 AUDIO
    TITLE "2:cjc102_3221"
    INDEX 01 01:31:38
  TRACK 109 AUDIO
    TITLE "0:"
    INDEX 01 01:32:37
  TRACK 110 AUDIO
    TITLE "3:cjc102_3222"
    INDEX 01 01:33:56
  TRACK 111 AUDIO
    TITLE "0:"
    INDEX 01 01:35:10
  TRACK 112 AUDIO
    TITLE "2:cjc102_3223"
    INDEX 01 01:35:53
  TRACK 113 AUDIO
    TITLE "0:"
    INDEX 01 01:36:56
